STARTFONT 2.1
FONT -FontForge-Tangerine-Book-R-Normal--24-240-72-72-P-89-ISO10646-1
SIZE 24 72 72
FONTBOUNDINGBOX 40 26 -8 -7
COMMENT "Generated by fontforge, http://fontforge.sourceforge.net"
COMMENT "Copyright (c) 2010 by Toshi Omagari. All rights reserved."
STARTPROPERTIES 39
FOUNDRY "FontForge"
FAMILY_NAME "Tangerine"
WEIGHT_NAME "Book"
SLANT "R"
SETWIDTH_NAME "Normal"
ADD_STYLE_NAME ""
PIXEL_SIZE 24
POINT_SIZE 240
RESOLUTION_X 72
RESOLUTION_Y 72
SPACING "P"
AVERAGE_WIDTH 89
CHARSET_REGISTRY "ISO10646"
CHARSET_ENCODING "1"
FONTNAME_REGISTRY ""
CHARSET_COLLECTIONS "ISO10646-1"
FONT_NAME "Tangerine-Regular"
FACE_NAME "Tangerine Regular"
COPYRIGHT "Copyright (c) 2010 by Toshi Omagari. All rights reserved."
FONT_VERSION "1.3"
FONT_ASCENT 18
FONT_DESCENT 6
UNDERLINE_POSITION -2
UNDERLINE_THICKNESS 2
X_HEIGHT 5
CAP_HEIGHT 14
RAW_ASCENT 750
RAW_DESCENT 250
NORM_SPACE 4
RELATIVE_WEIGHT 40
RELATIVE_SETWIDTH 50
SUPERSCRIPT_X 0
SUPERSCRIPT_Y 11
SUPERSCRIPT_SIZE 15
SUBSCRIPT_X 0
SUBSCRIPT_Y 3
SUBSCRIPT_SIZE 15
AVG_LOWERCASE_WIDTH 58
AVG_UPPERCASE_WIDTH 170
ENDPROPERTIES
CHARS 233
STARTCHAR space
ENCODING 32
SWIDTH 150 0
DWIDTH 4 0
BBX 1 1 0 0
BITMAP
00
ENDCHAR
STARTCHAR exclam
ENCODING 33
SWIDTH 189 0
DWIDTH 5 0
BBX 7 14 1 0
BITMAP
02
04
04
08
08
10
10
20
20
40
00
00
40
80
ENDCHAR
STARTCHAR quotedbl
ENCODING 34
SWIDTH 214 0
DWIDTH 5 0
BBX 6 4 1 6
BITMAP
64
48
90
A0
ENDCHAR
STARTCHAR numbersign
ENCODING 35
SWIDTH 289 0
DWIDTH 7 0
BBX 8 8 0 0
BITMAP
0A
14
7F
24
28
FE
48
90
ENDCHAR
STARTCHAR dollar
ENCODING 36
SWIDTH 269 0
DWIDTH 6 0
BBX 6 12 0 -2
BITMAP
04
08
14
2C
30
10
28
A8
C8
F0
40
80
ENDCHAR
STARTCHAR percent
ENCODING 37
SWIDTH 388 0
DWIDTH 9 0
BBX 9 11 0 -2
BITMAP
0180
3100
5200
9400
A900
4E80
1480
2500
2600
4000
8000
ENDCHAR
STARTCHAR ampersand
ENCODING 38
SWIDTH 507 0
DWIDTH 12 0
BBX 13 12 0 0
BITMAP
0600
0B00
1200
1200
1400
0800
3830
4CC8
8C80
8700
8300
7CF0
ENDCHAR
STARTCHAR quotesingle
ENCODING 39
SWIDTH 120 0
DWIDTH 3 0
BBX 3 3 1 7
BITMAP
20
40
80
ENDCHAR
STARTCHAR parenleft
ENCODING 40
SWIDTH 250 0
DWIDTH 6 0
BBX 6 18 2 -3
BITMAP
0C
08
10
20
20
40
40
40
40
80
80
80
80
80
80
80
80
C0
ENDCHAR
STARTCHAR parenright
ENCODING 41
SWIDTH 276 0
DWIDTH 7 0
BBX 5 18 1 -3
BITMAP
08
08
08
08
08
08
08
08
08
08
10
10
10
20
20
40
80
80
ENDCHAR
STARTCHAR asterisk
ENCODING 42
SWIDTH 188 0
DWIDTH 5 0
BBX 4 5 1 5
BITMAP
20
50
E0
A0
A0
ENDCHAR
STARTCHAR plus
ENCODING 43
SWIDTH 301 0
DWIDTH 7 0
BBX 6 5 1 1
BITMAP
10
20
FC
20
20
ENDCHAR
STARTCHAR comma
ENCODING 44
SWIDTH 112 0
DWIDTH 3 0
BBX 2 4 0 -2
BITMAP
40
40
40
80
ENDCHAR
STARTCHAR hyphen
ENCODING 45
SWIDTH 245 0
DWIDTH 6 0
BBX 4 1 1 3
BITMAP
F0
ENDCHAR
STARTCHAR period
ENCODING 46
SWIDTH 112 0
DWIDTH 3 0
BBX 1 2 1 0
BITMAP
80
80
ENDCHAR
STARTCHAR slash
ENCODING 47
SWIDTH 210 0
DWIDTH 5 0
BBX 10 16 -1 -1
BITMAP
0040
0080
0080
0100
0200
0200
0400
0400
0800
0800
1000
2000
2000
4000
4000
8000
ENDCHAR
STARTCHAR zero
ENCODING 48
SWIDTH 349 0
DWIDTH 8 0
BBX 7 8 1 0
BITMAP
1C
26
42
82
82
84
88
70
ENDCHAR
STARTCHAR one
ENCODING 49
SWIDTH 189 0
DWIDTH 5 0
BBX 5 8 1 0
BITMAP
18
F0
20
20
40
40
80
80
ENDCHAR
STARTCHAR two
ENCODING 50
SWIDTH 277 0
DWIDTH 7 0
BBX 7 8 0 0
BITMAP
0E
32
22
04
04
18
22
FC
ENDCHAR
STARTCHAR three
ENCODING 51
SWIDTH 253 0
DWIDTH 6 0
BBX 7 12 -1 -4
BITMAP
1E
22
02
06
18
24
02
02
02
04
88
70
ENDCHAR
STARTCHAR four
ENCODING 52
SWIDTH 363 0
DWIDTH 9 0
BBX 10 12 1 0
BITMAP
0040
0180
0300
0E00
1200
2200
4400
8500
FE00
0800
0800
1000
ENDCHAR
STARTCHAR five
ENCODING 53
SWIDTH 250 0
DWIDTH 6 0
BBX 9 13 -2 -4
BITMAP
0080
0780
0800
0800
1000
0C00
0600
0200
0200
0200
0400
8800
7000
ENDCHAR
STARTCHAR six
ENCODING 54
SWIDTH 296 0
DWIDTH 7 0
BBX 10 12 1 0
BITMAP
0380
0C80
1040
2000
4000
5800
6400
8400
8400
8800
8800
7000
ENDCHAR
STARTCHAR seven
ENCODING 55
SWIDTH 326 0
DWIDTH 8 0
BBX 9 12 0 -4
BITMAP
1F80
2100
4100
0200
0400
0400
0800
1000
2000
4000
4000
8000
ENDCHAR
STARTCHAR eight
ENCODING 56
SWIDTH 305 0
DWIDTH 7 0
BBX 8 11 1 0
BITMAP
1F
21
21
32
1C
28
C4
84
84
88
70
ENDCHAR
STARTCHAR nine
ENCODING 57
SWIDTH 304 0
DWIDTH 7 0
BBX 8 12 -1 -4
BITMAP
0E
1B
11
21
21
23
22
1E
04
04
88
F0
ENDCHAR
STARTCHAR colon
ENCODING 58
SWIDTH 156 0
DWIDTH 4 0
BBX 2 6 1 0
BITMAP
40
40
00
00
80
80
ENDCHAR
STARTCHAR semicolon
ENCODING 59
SWIDTH 156 0
DWIDTH 4 0
BBX 3 8 0 -2
BITMAP
20
20
00
00
40
40
40
80
ENDCHAR
STARTCHAR less
ENCODING 60
SWIDTH 301 0
DWIDTH 7 0
BBX 6 5 1 1
BITMAP
04
18
E0
40
38
ENDCHAR
STARTCHAR equal
ENCODING 61
SWIDTH 301 0
DWIDTH 7 0
BBX 6 4 1 1
BITMAP
7C
00
00
F8
ENDCHAR
STARTCHAR greater
ENCODING 62
SWIDTH 301 0
DWIDTH 7 0
BBX 6 5 1 1
BITMAP
60
18
0C
70
80
ENDCHAR
STARTCHAR question
ENCODING 63
SWIDTH 285 0
DWIDTH 7 0
BBX 8 13 1 0
BITMAP
04
1B
21
01
01
02
0C
10
20
20
00
40
80
ENDCHAR
STARTCHAR at
ENCODING 64
SWIDTH 492 0
DWIDTH 12 0
BBX 10 12 1 -3
BITMAP
1F00
2180
40C0
8E40
9240
9440
9C80
9D00
8200
C180
6100
0E00
ENDCHAR
STARTCHAR A
ENCODING 65
SWIDTH 996 0
DWIDTH 24 0
BBX 23 15 1 0
BITMAP
0007F0
00180E
002004
00201C
004028
000048
000090
000110
001FF0
000410
C00810
801010
802010
40C016
7F0018
ENDCHAR
STARTCHAR B
ENCODING 66
SWIDTH 638 0
DWIDTH 15 0
BBX 15 16 1 0
BITMAP
0008
01F8
0E84
1082
2102
0102
0304
0268
0218
060C
0404
0404
0804
F004
3008
0FF0
ENDCHAR
STARTCHAR C
ENCODING 67
SWIDTH 557 0
DWIDTH 13 0
BBX 13 15 2 0
BITMAP
03F8
0C08
3008
2000
4000
8000
8000
8000
8000
8000
8000
C020
4020
2040
1F80
ENDCHAR
STARTCHAR D
ENCODING 68
SWIDTH 799 0
DWIDTH 19 0
BBX 19 15 0 0
BITMAP
03F380
040C00
081300
101180
102080
002040
002040
004020
004020
004020
008020
010020
110040
6F0080
FCFF00
ENDCHAR
STARTCHAR E
ENCODING 69
SWIDTH 494 0
DWIDTH 12 0
BBX 11 15 2 0
BITMAP
07C0
1820
1040
1000
1800
0E00
3000
4000
8000
8000
8000
8040
8080
4080
3F00
ENDCHAR
STARTCHAR F
ENCODING 70
SWIDTH 626 0
DWIDTH 15 0
BBX 19 15 1 0
BITMAP
00FFE0
030200
040400
080800
000800
000800
001000
01FE00
021000
002000
C02000
804000
808000
C10000
7E0000
ENDCHAR
STARTCHAR G
ENCODING 71
SWIDTH 571 0
DWIDTH 14 0
BBX 18 19 -1 -4
BITMAP
000780
0018C0
006040
008080
010080
010000
020000
020000
020000
020400
020400
020800
41F800
801000
801000
802000
804000
408000
3F0000
ENDCHAR
STARTCHAR H
ENCODING 72
SWIDTH 865 0
DWIDTH 21 0
BBX 27 16 1 0
BITMAP
000000C0
00FC0320
03080400
04100800
04101000
00101000
00202000
00202000
07E04000
185E4000
6041E000
80808000
80808000
81008000
C200B000
7C00C000
ENDCHAR
STARTCHAR I
ENCODING 73
SWIDTH 554 0
DWIDTH 13 0
BBX 17 15 1 0
BITMAP
000780
001A00
006400
008400
008800
010800
010800
011000
011000
012000
40B000
804000
808000
C10000
7E0000
ENDCHAR
STARTCHAR J
ENCODING 74
SWIDTH 634 0
DWIDTH 15 0
BBX 20 19 0 -4
BITMAP
0000F0
000340
000C80
001080
002100
002100
002100
004200
004200
002200
0E1600
300C00
400800
401000
801000
802000
804000
C18000
7E0000
ENDCHAR
STARTCHAR K
ENCODING 75
SWIDTH 936 0
DWIDTH 22 0
BBX 23 15 1 0
BITMAP
007E0E
018432
060840
040980
080A00
080A00
081400
001400
001400
402200
802200
804300
804100
C18088
7E0070
ENDCHAR
STARTCHAR L
ENCODING 76
SWIDTH 657 0
DWIDTH 16 0
BBX 16 15 1 0
BITMAP
0007
0019
0021
0041
0040
0040
0080
0080
0080
0080
0100
0100
7A02
8704
F9F8
ENDCHAR
STARTCHAR M
ENCODING 77
SWIDTH 1219 0
DWIDTH 29 0
BBX 30 15 1 0
BITMAP
001FC004
00603C18
00800870
008010A0
00803120
00005240
0000A640
20012440
40012880
80025080
80046080
80086080
40304080
60404090
3F808060
ENDCHAR
STARTCHAR N
ENCODING 78
SWIDTH 990 0
DWIDTH 24 0
BBX 30 15 2 0
BITMAP
00F40018
030C0068
00020084
00050080
00048100
00088200
00084200
00084400
80102400
80102400
80201400
80401800
80400800
C1800800
3E000800
ENDCHAR
STARTCHAR O
ENCODING 79
SWIDTH 606 0
DWIDTH 15 0
BBX 14 15 2 0
BITMAP
03E0
0C38
1008
200C
4004
4004
8004
8004
8004
8008
8008
C010
4020
70C0
1F00
ENDCHAR
STARTCHAR P
ENCODING 80
SWIDTH 783 0
DWIDTH 19 0
BBX 20 16 1 0
BITMAP
000080
001F80
006460
008420
010410
020810
020810
000810
003020
001040
402F80
802000
804000
808000
C10000
3E0000
ENDCHAR
STARTCHAR Q
ENCODING 81
SWIDTH 563 0
DWIDTH 14 0
BBX 17 19 2 -4
BITMAP
07C000
183000
201000
400800
400800
800800
800800
800800
801000
801000
402000
784000
008000
030000
FC0000
0C0000
030000
00C180
003E00
ENDCHAR
STARTCHAR R
ENCODING 82
SWIDTH 854 0
DWIDTH 21 0
BBX 20 16 1 0
BITMAP
000180
001E80
006840
018820
021020
001020
001040
001080
002F00
002800
404800
804400
808400
810200
C20310
7C01E0
ENDCHAR
STARTCHAR S
ENCODING 83
SWIDTH 480 0
DWIDTH 12 0
BBX 12 15 1 0
BITMAP
01E0
0210
0210
0200
0300
0100
0180
0080
00C0
0040
C040
8040
8080
C080
3F00
ENDCHAR
STARTCHAR T
ENCODING 84
SWIDTH 577 0
DWIDTH 14 0
BBX 18 15 1 0
BITMAP
01FE00
0603C0
080200
100400
100800
100800
101000
001000
001000
002000
402000
804000
808000
C10000
7E0000
ENDCHAR
STARTCHAR U
ENCODING 85
SWIDTH 752 0
DWIDTH 18 0
BBX 19 15 1 0
BITMAP
0FC020
304040
408040
810080
820080
820080
840100
840100
080700
080600
080A00
081200
082200
0C42C0
078300
ENDCHAR
STARTCHAR V
ENCODING 86
SWIDTH 661 0
DWIDTH 16 0
BBX 16 15 2 0
BITMAP
1E06
631B
8101
8081
8081
8082
0082
0084
0084
0088
0090
00A0
0140
0180
0200
ENDCHAR
STARTCHAR W
ENCODING 87
SWIDTH 822 0
DWIDTH 20 0
BBX 22 15 1 0
BITMAP
1E0008
630234
810404
818804
808808
809808
00A810
00C810
00C820
018440
018480
010500
030600
020600
020400
ENDCHAR
STARTCHAR X
ENCODING 88
SWIDTH 813 0
DWIDTH 20 0
BBX 18 15 2 0
BITMAP
0301C0
058640
088840
009080
00A000
00E000
00C000
004000
00C000
014000
012000
822000
841080
881880
F00700
ENDCHAR
STARTCHAR Y
ENCODING 89
SWIDTH 662 0
DWIDTH 16 0
BBX 21 18 0 -3
BITMAP
00E008
012010
002010
002020
004060
004040
004080
008180
008100
388700
408A00
80F400
800400
800800
801000
C02000
60C000
3F0000
ENDCHAR
STARTCHAR Z
ENCODING 90
SWIDTH 625 0
DWIDTH 15 0
BBX 16 15 1 0
BITMAP
01FF
0204
0408
0410
0020
0040
0080
0100
0200
0400
0800
1004
2008
7810
87E0
ENDCHAR
STARTCHAR bracketleft
ENCODING 91
SWIDTH 318 0
DWIDTH 8 0
BBX 8 17 2 -2
BITMAP
0F
08
10
10
10
10
20
20
20
20
40
40
40
40
C0
80
F0
ENDCHAR
STARTCHAR backslash
ENCODING 92
SWIDTH 212 0
DWIDTH 5 0
BBX 3 16 1 -1
BITMAP
80
80
80
80
80
80
80
40
40
40
40
40
20
20
20
20
ENDCHAR
STARTCHAR bracketright
ENCODING 93
SWIDTH 339 0
DWIDTH 8 0
BBX 9 17 0 -2
BITMAP
0780
0100
0100
0100
0100
0200
0200
0200
0200
0400
0400
0400
0400
0800
0800
0800
F800
ENDCHAR
STARTCHAR asciicircum
ENCODING 94
SWIDTH 272 0
DWIDTH 7 0
BBX 5 5 1 4
BITMAP
10
30
50
88
88
ENDCHAR
STARTCHAR underscore
ENCODING 95
SWIDTH 356 0
DWIDTH 9 0
BBX 8 1 0 -1
BITMAP
FF
ENDCHAR
STARTCHAR grave
ENCODING 96
SWIDTH 155 0
DWIDTH 4 0
BBX 3 2 0 7
BITMAP
C0
20
ENDCHAR
STARTCHAR a
ENCODING 97
SWIDTH 294 0
DWIDTH 7 0
BBX 6 6 1 0
BITMAP
3C
48
90
90
B8
C8
ENDCHAR
STARTCHAR b
ENCODING 98
SWIDTH 247 0
DWIDTH 6 0
BBX 11 18 1 0
BITMAP
00E0
0320
0400
0800
0800
1000
2000
2000
2000
4000
4000
4000
B000
C800
9000
9000
A000
C000
ENDCHAR
STARTCHAR c
ENCODING 99
SWIDTH 203 0
DWIDTH 5 0
BBX 4 6 1 0
BITMAP
70
80
80
80
90
E0
ENDCHAR
STARTCHAR d
ENCODING 100
SWIDTH 285 0
DWIDTH 7 0
BBX 14 18 1 0
BITMAP
000C
0034
0040
0080
0100
0100
0200
0200
0400
0400
0800
0800
7800
4800
9000
9000
B400
D800
ENDCHAR
STARTCHAR e
ENCODING 101
SWIDTH 206 0
DWIDTH 5 0
BBX 4 6 1 0
BITMAP
70
90
E0
80
90
E0
ENDCHAR
STARTCHAR f
ENCODING 102
SWIDTH 156 0
DWIDTH 4 0
BBX 20 24 -7 -6
BITMAP
0000E0
000110
000200
000400
000800
000800
001000
001000
001000
002000
002000
002000
00F800
004000
004000
008000
008000
008000
010000
010000
020000
040000
880000
F00000
ENDCHAR
STARTCHAR g
ENCODING 103
SWIDTH 210 0
DWIDTH 5 0
BBX 7 12 -2 -6
BITMAP
0E
14
14
14
18
08
08
44
84
84
C4
78
ENDCHAR
STARTCHAR h
ENCODING 104
SWIDTH 292 0
DWIDTH 7 0
BBX 13 18 0 0
BITMAP
0038
00C8
0100
0200
0400
0400
0800
0800
1000
1000
2000
2000
2C00
5400
6800
4800
C800
8E00
ENDCHAR
STARTCHAR i
ENCODING 105
SWIDTH 149 0
DWIDTH 4 0
BBX 5 10 1 0
BITMAP
08
10
20
00
60
C0
40
80
A0
C0
ENDCHAR
STARTCHAR j
ENCODING 106
SWIDTH 136 0
DWIDTH 3 0
BBX 13 15 -7 -6
BITMAP
0018
0020
0000
0040
01C0
0080
0080
0080
0100
0100
0200
0200
0400
8800
F000
ENDCHAR
STARTCHAR k
ENCODING 107
SWIDTH 259 0
DWIDTH 6 0
BBX 12 18 1 0
BITMAP
0070
0190
0200
0400
0800
0800
1000
1000
2000
2000
4000
4000
5800
6800
5000
A000
A000
B800
ENDCHAR
STARTCHAR l
ENCODING 108
SWIDTH 134 0
DWIDTH 3 0
BBX 11 18 1 0
BITMAP
00E0
0120
0200
0400
0800
0800
1000
1000
2000
2000
2000
4000
4000
4000
8000
8000
8000
E000
ENDCHAR
STARTCHAR m
ENCODING 109
SWIDTH 413 0
DWIDTH 10 0
BBX 9 6 1 0
BITMAP
DB00
6D00
4900
4A00
9200
9380
ENDCHAR
STARTCHAR n
ENCODING 110
SWIDTH 291 0
DWIDTH 7 0
BBX 7 6 0 0
BITMAP
E6
3C
64
48
CA
8C
ENDCHAR
STARTCHAR o
ENCODING 111
SWIDTH 225 0
DWIDTH 5 0
BBX 4 6 1 0
BITMAP
30
50
90
90
A0
C0
ENDCHAR
STARTCHAR p
ENCODING 112
SWIDTH 261 0
DWIDTH 6 0
BBX 6 13 0 -6
BITMAP
20
7C
24
24
44
48
70
80
80
80
80
80
C0
ENDCHAR
STARTCHAR q
ENCODING 113
SWIDTH 269 0
DWIDTH 6 0
BBX 6 12 1 -6
BITMAP
3C
48
90
90
B0
E0
20
20
40
40
40
60
ENDCHAR
STARTCHAR r
ENCODING 114
SWIDTH 195 0
DWIDTH 5 0
BBX 5 6 1 0
BITMAP
D8
70
40
40
80
80
ENDCHAR
STARTCHAR s
ENCODING 115
SWIDTH 188 0
DWIDTH 5 0
BBX 5 6 0 0
BITMAP
38
28
20
10
90
E0
ENDCHAR
STARTCHAR t
ENCODING 116
SWIDTH 171 0
DWIDTH 4 0
BBX 4 9 1 0
BITMAP
10
20
20
F0
40
80
80
A0
C0
ENDCHAR
STARTCHAR u
ENCODING 117
SWIDTH 299 0
DWIDTH 7 0
BBX 7 6 1 0
BITMAP
64
C4
88
98
A8
CE
ENDCHAR
STARTCHAR v
ENCODING 118
SWIDTH 271 0
DWIDTH 7 0
BBX 6 6 1 0
BITMAP
CC
44
4C
98
F0
C0
ENDCHAR
STARTCHAR w
ENCODING 119
SWIDTH 369 0
DWIDTH 9 0
BBX 8 6 1 0
BITMAP
CB
51
51
72
52
9C
ENDCHAR
STARTCHAR x
ENCODING 120
SWIDTH 263 0
DWIDTH 6 0
BBX 7 6 -1 0
BITMAP
36
5A
10
10
A8
CE
ENDCHAR
STARTCHAR y
ENCODING 121
SWIDTH 280 0
DWIDTH 7 0
BBX 11 12 -4 -6
BITMAP
0320
0620
0440
04C0
0580
0680
0080
0100
8100
8200
8400
7800
ENDCHAR
STARTCHAR z
ENCODING 122
SWIDTH 238 0
DWIDTH 6 0
BBX 6 6 0 0
BITMAP
3C
50
20
20
48
F0
ENDCHAR
STARTCHAR braceleft
ENCODING 123
SWIDTH 291 0
DWIDTH 7 0
BBX 7 17 2 -2
BITMAP
06
08
10
10
10
10
30
20
C0
20
20
20
40
40
40
80
70
ENDCHAR
STARTCHAR bar
ENCODING 124
SWIDTH 162 0
DWIDTH 4 0
BBX 1 21 2 -6
BITMAP
80
80
80
80
80
80
80
80
80
80
80
80
80
80
80
80
80
80
80
80
80
ENDCHAR
STARTCHAR braceright
ENCODING 125
SWIDTH 285 0
DWIDTH 7 0
BBX 8 17 0 -2
BITMAP
0E
02
03
02
02
04
04
04
06
04
08
08
08
08
10
10
E0
ENDCHAR
STARTCHAR asciitilde
ENCODING 126
SWIDTH 383 0
DWIDTH 9 0
BBX 8 2 1 3
BITMAP
73
9C
ENDCHAR
STARTCHAR space.dup1
ENCODING 160
SWIDTH 150 0
DWIDTH 4 0
BBX 1 1 0 0
BITMAP
00
ENDCHAR
STARTCHAR exclamdown
ENCODING 161
SWIDTH 189 0
DWIDTH 5 0
BBX 6 13 -2 -7
BITMAP
04
00
00
08
08
10
10
20
20
20
40
40
80
ENDCHAR
STARTCHAR cent
ENCODING 162
SWIDTH 194 0
DWIDTH 5 0
BBX 5 12 0 -2
BITMAP
08
08
38
58
A0
A0
A0
C0
70
80
80
80
ENDCHAR
STARTCHAR sterling
ENCODING 163
SWIDTH 344 0
DWIDTH 8 0
BBX 8 8 0 0
BITMAP
06
09
10
10
3C
20
60
DE
ENDCHAR
STARTCHAR currency
ENCODING 164
SWIDTH 344 0
DWIDTH 8 0
BBX 7 8 1 0
BITMAP
42
44
7C
84
84
88
78
88
ENDCHAR
STARTCHAR yen
ENCODING 165
SWIDTH 309 0
DWIDTH 7 0
BBX 7 8 1 0
BITMAP
C6
58
60
30
E0
40
F0
40
ENDCHAR
STARTCHAR brokenbar
ENCODING 166
SWIDTH 162 0
DWIDTH 4 0
BBX 1 21 2 -6
BITMAP
80
80
80
80
80
80
80
80
00
00
00
00
00
80
80
80
80
80
80
80
80
ENDCHAR
STARTCHAR section
ENCODING 167
SWIDTH 395 0
DWIDTH 9 0
BBX 12 18 -1 -6
BITMAP
03F0
0510
0A10
0A00
0B00
0B00
0B00
0900
0D00
0580
0480
0680
0680
8680
8280
8700
8600
7800
ENDCHAR
STARTCHAR dieresis
ENCODING 168
SWIDTH 174 0
DWIDTH 4 0
BBX 3 1 1 8
BITMAP
A0
ENDCHAR
STARTCHAR copyright
ENCODING 169
SWIDTH 331 0
DWIDTH 8 0
BBX 6 6 1 3
BITMAP
18
64
BC
C4
BC
F8
ENDCHAR
STARTCHAR ordfeminine
ENCODING 170
SWIDTH 226 0
DWIDTH 5 0
BBX 4 3 1 5
BITMAP
70
A0
F0
ENDCHAR
STARTCHAR guillemotleft
ENCODING 171
SWIDTH 289 0
DWIDTH 7 0
BBX 7 6 0 0
BITMAP
12
24
58
90
48
24
ENDCHAR
STARTCHAR logicalnot
ENCODING 172
SWIDTH 265 0
DWIDTH 6 0
BBX 5 3 1 3
BITMAP
F8
08
10
ENDCHAR
STARTCHAR registered
ENCODING 174
SWIDTH 331 0
DWIDTH 8 0
BBX 6 6 1 3
BITMAP
3C
54
AC
B4
DC
78
ENDCHAR
STARTCHAR degree
ENCODING 176
SWIDTH 104 0
DWIDTH 3 0
BBX 4 3 1 7
BITMAP
70
90
E0
ENDCHAR
STARTCHAR plusminus
ENCODING 177
SWIDTH 301 0
DWIDTH 7 0
BBX 6 6 0 0
BITMAP
18
10
7C
20
20
F8
ENDCHAR
STARTCHAR twosuperior
ENCODING 178
SWIDTH 215 0
DWIDTH 5 0
BBX 3 4 2 4
BITMAP
60
20
40
E0
ENDCHAR
STARTCHAR threesuperior
ENCODING 179
SWIDTH 190 0
DWIDTH 5 0
BBX 3 4 1 4
BITMAP
E0
40
20
C0
ENDCHAR
STARTCHAR acute
ENCODING 180
SWIDTH 157 0
DWIDTH 4 0
BBX 3 3 0 7
BITMAP
20
20
C0
ENDCHAR
STARTCHAR mu
ENCODING 181
SWIDTH 324 0
DWIDTH 8 0
BBX 8 10 -1 -4
BITMAP
19
11
22
26
6A
53
40
40
80
80
ENDCHAR
STARTCHAR paragraph
ENCODING 182
SWIDTH 392 0
DWIDTH 9 0
BBX 12 14 -2 -6
BITMAP
00F0
03A0
07C0
0F40
0F40
0F40
0F80
0680
0280
0300
8500
8600
8C00
7000
ENDCHAR
STARTCHAR periodcentered
ENCODING 183
SWIDTH 112 0
DWIDTH 3 0
BBX 1 1 1 3
BITMAP
80
ENDCHAR
STARTCHAR cedilla
ENCODING 184
SWIDTH 115 0
DWIDTH 3 0
BBX 2 3 0 -3
BITMAP
40
40
80
ENDCHAR
STARTCHAR onesuperior
ENCODING 185
SWIDTH 174 0
DWIDTH 4 0
BBX 3 4 1 4
BITMAP
60
40
80
80
ENDCHAR
STARTCHAR ordmasculine
ENCODING 186
SWIDTH 178 0
DWIDTH 4 0
BBX 3 3 1 5
BITMAP
60
A0
C0
ENDCHAR
STARTCHAR guillemotright
ENCODING 187
SWIDTH 276 0
DWIDTH 7 0
BBX 7 6 -1 0
BITMAP
48
24
12
24
48
B0
ENDCHAR
STARTCHAR onequarter
ENCODING 188
SWIDTH 435 0
DWIDTH 10 0
BBX 9 9 1 -1
BITMAP
3100
6200
4400
4880
5100
3700
2700
4A00
8000
ENDCHAR
STARTCHAR onehalf
ENCODING 189
SWIDTH 434 0
DWIDTH 10 0
BBX 9 9 1 -1
BITMAP
1100
6200
4400
4B80
5480
3100
2200
4700
8800
ENDCHAR
STARTCHAR threequarters
ENCODING 190
SWIDTH 476 0
DWIDTH 11 0
BBX 10 9 1 -1
BITMAP
0080
7100
1200
7440
1880
B380
5780
2100
4000
ENDCHAR
STARTCHAR questiondown
ENCODING 191
SWIDTH 285 0
DWIDTH 7 0
BBX 8 13 -1 -7
BITMAP
03
00
04
04
08
10
20
40
80
80
88
D8
40
ENDCHAR
STARTCHAR Agrave
ENCODING 192
SWIDTH 996 0
DWIDTH 24 0
BBX 23 18 1 0
BITMAP
000008
000004
000002
0007F0
00180E
002004
00201C
004028
000048
000090
000110
001FF0
000410
C00810
801010
802010
40C016
7F0018
ENDCHAR
STARTCHAR Aacute
ENCODING 193
SWIDTH 996 0
DWIDTH 24 0
BBX 24 18 1 0
BITMAP
000003
000004
000000
0007F0
00180E
002004
00201C
004028
000048
000090
000110
001FF0
000410
C00810
801010
802010
40C016
7F0018
ENDCHAR
STARTCHAR Acircumflex
ENCODING 194
SWIDTH 996 0
DWIDTH 24 0
BBX 24 19 1 0
BITMAP
000002
00000D
000000
000000
0007F0
00180E
002004
00201C
004028
000048
000090
000110
001FF0
000410
C00810
801010
802010
40C016
7F0018
ENDCHAR
STARTCHAR Atilde
ENCODING 195
SWIDTH 996 0
DWIDTH 24 0
BBX 25 18 1 0
BITMAP
00000480
00000B00
00000000
0007F000
00180E00
00200400
00201C00
00402800
00004800
00009000
00011000
001FF000
00041000
C0081000
80101000
80201000
40C01600
7F001800
ENDCHAR
STARTCHAR Adieresis
ENCODING 196
SWIDTH 996 0
DWIDTH 24 0
BBX 24 18 1 0
BITMAP
000005
000000
000000
0007F0
00180E
002004
00201C
004028
000048
000090
000110
001FF0
000410
C00810
801010
802010
40C016
7F0018
ENDCHAR
STARTCHAR Aring
ENCODING 197
SWIDTH 996 0
DWIDTH 24 0
BBX 24 19 1 0
BITMAP
000002
000005
000006
000000
0007F0
00180E
002004
00201C
004028
000048
000090
000110
001FF0
000410
C00810
801010
802010
40C016
7F0018
ENDCHAR
STARTCHAR AE
ENCODING 198
SWIDTH 1271 0
DWIDTH 31 0
BBX 30 15 1 0
BITMAP
0007F07C
00180F84
00200F04
00401500
00402580
000048C0
00008F00
00010800
001FF000
00041000
80081000
80101008
80601010
C1800810
7C0007E0
ENDCHAR
STARTCHAR Ccedilla
ENCODING 199
SWIDTH 557 0
DWIDTH 13 0
BBX 13 17 2 -2
BITMAP
03F8
0C08
3008
4000
4000
8000
8000
8000
8000
8000
8020
4020
6020
1040
0F80
0400
0400
ENDCHAR
STARTCHAR Egrave
ENCODING 200
SWIDTH 463 0
DWIDTH 11 0
BBX 12 18 1 0
BITMAP
0100
00C0
0000
03E0
0C10
0820
0800
0C00
0700
1800
6000
8000
8000
8000
8040
8080
4080
3F00
ENDCHAR
STARTCHAR Eacute
ENCODING 201
SWIDTH 463 0
DWIDTH 11 0
BBX 12 18 1 0
BITMAP
0040
0080
0100
03E0
0C10
0820
0800
0C00
0700
1800
6000
8000
8000
8000
8040
8080
4080
3F00
ENDCHAR
STARTCHAR Ecircumflex
ENCODING 202
SWIDTH 463 0
DWIDTH 11 0
BBX 12 19 1 0
BITMAP
0080
0340
0000
0000
03E0
0C10
0820
0800
0C00
0700
1800
6000
8000
8000
8000
8040
8080
4080
3F00
ENDCHAR
STARTCHAR Edieresis
ENCODING 203
SWIDTH 463 0
DWIDTH 11 0
BBX 12 18 1 0
BITMAP
0140
0000
0000
03E0
0C10
0820
0800
0C00
0700
1800
6000
8000
8000
8000
8040
8080
4080
3F00
ENDCHAR
STARTCHAR Igrave
ENCODING 204
SWIDTH 514 0
DWIDTH 12 0
BBX 17 18 0 0
BITMAP
000C00
000200
000000
000780
001A00
006400
008400
008800
010800
010800
011000
011000
012000
40B000
804000
808000
C10000
7E0000
ENDCHAR
STARTCHAR Iacute
ENCODING 205
SWIDTH 514 0
DWIDTH 12 0
BBX 17 19 0 0
BITMAP
000200
000400
000800
000000
000780
001A00
006400
008400
008800
010800
010800
011000
011000
012000
40B000
804000
808000
C10000
7E0000
ENDCHAR
STARTCHAR Icircumflex
ENCODING 206
SWIDTH 514 0
DWIDTH 12 0
BBX 17 19 0 0
BITMAP
000200
000D00
000000
000000
000780
001A00
006400
008400
008800
010800
010800
011000
011000
012000
40B000
804000
808000
C10000
7E0000
ENDCHAR
STARTCHAR Idieresis
ENCODING 207
SWIDTH 514 0
DWIDTH 12 0
BBX 17 18 0 0
BITMAP
000500
000000
000000
000780
001A00
006400
008400
008800
010800
010800
011000
011000
012000
40B000
804000
808000
C10000
7E0000
ENDCHAR
STARTCHAR Eth
ENCODING 208
SWIDTH 800 0
DWIDTH 19 0
BBX 19 15 0 0
BITMAP
01F380
0E1C00
101300
102080
102080
002040
004040
003820
03C020
008020
008020
010020
010040
7F0080
FCFF00
ENDCHAR
STARTCHAR Ntilde
ENCODING 209
SWIDTH 796 0
DWIDTH 19 0
BBX 30 18 -3 0
BITMAP
00003200
00004C00
00000000
00F40018
030C0068
00020084
00050080
00048100
00088200
00084200
00084400
80102400
80102400
80201400
80401800
80400800
C1800800
3E000800
ENDCHAR
STARTCHAR Ograve
ENCODING 210
SWIDTH 608 0
DWIDTH 15 0
BBX 14 18 2 0
BITMAP
0100
0080
0040
03E0
0C38
1008
200C
4004
4004
8004
8004
8004
8008
8008
C010
4020
70C0
1F00
ENDCHAR
STARTCHAR Oacute
ENCODING 211
SWIDTH 608 0
DWIDTH 15 0
BBX 14 18 2 0
BITMAP
0040
0080
0100
03E0
0C38
1008
200C
4004
4004
8004
8004
8004
8008
8008
C010
4020
70C0
1F00
ENDCHAR
STARTCHAR Ocircumflex
ENCODING 212
SWIDTH 608 0
DWIDTH 15 0
BBX 14 19 2 0
BITMAP
0080
0160
0000
0000
03E0
0C38
1008
200C
4004
4004
8004
8004
8004
8008
8008
C010
4020
70C0
1F00
ENDCHAR
STARTCHAR Otilde
ENCODING 213
SWIDTH 608 0
DWIDTH 15 0
BBX 14 18 2 0
BITMAP
01A0
02E0
0000
03E0
0C38
1008
200C
4004
4004
8004
8004
8004
8008
8008
C010
4020
70C0
1F00
ENDCHAR
STARTCHAR Odieresis
ENCODING 214
SWIDTH 608 0
DWIDTH 15 0
BBX 14 17 2 0
BITMAP
0140
0000
03E0
0C38
1008
200C
4004
4004
8004
8004
8004
8008
8008
C010
4020
70C0
1F00
ENDCHAR
STARTCHAR multiply
ENCODING 215
SWIDTH 301 0
DWIDTH 7 0
BBX 7 5 0 1
BITMAP
26
28
10
28
C8
ENDCHAR
STARTCHAR Oslash
ENCODING 216
SWIDTH 605 0
DWIDTH 15 0
BBX 14 16 2 0
BITMAP
0018
03F0
0C58
104C
2084
4104
4104
8204
8404
8808
8808
9010
A010
6020
70C0
9F00
ENDCHAR
STARTCHAR Ugrave
ENCODING 217
SWIDTH 717 0
DWIDTH 17 0
BBX 19 18 0 0
BITMAP
000800
000600
000100
0FC020
304040
408040
810080
820080
820080
840100
840100
080700
080200
080E00
081200
082200
0C42C0
078300
ENDCHAR
STARTCHAR Uacute
ENCODING 218
SWIDTH 717 0
DWIDTH 17 0
BBX 19 18 0 0
BITMAP
000100
000280
000400
0FC020
304040
408040
810080
820080
820080
840100
840100
080700
080200
080E00
081200
082200
0C42C0
078300
ENDCHAR
STARTCHAR Ucircumflex
ENCODING 219
SWIDTH 718 0
DWIDTH 17 0
BBX 19 18 0 0
BITMAP
000200
000D00
000080
0FC020
304040
408040
810080
820080
820180
840100
840300
080500
080600
080A00
081200
082200
0C42C0
078300
ENDCHAR
STARTCHAR Udieresis
ENCODING 220
SWIDTH 718 0
DWIDTH 17 0
BBX 19 18 0 0
BITMAP
000500
000000
000000
0FC020
304040
408040
810080
820080
820080
840100
840100
080700
080200
080E00
081200
082200
0C42C0
078300
ENDCHAR
STARTCHAR Yacute
ENCODING 221
SWIDTH 662 0
DWIDTH 16 0
BBX 21 21 0 -3
BITMAP
0000C0
000180
000200
00E008
012010
002010
002020
004060
004040
004080
008180
008100
388700
408A00
80F400
800400
800800
801000
C02000
60C000
3F0000
ENDCHAR
STARTCHAR Thorn
ENCODING 222
SWIDTH 745 0
DWIDTH 18 0
BBX 17 17 2 0
BITMAP
000100
000200
000400
000800
003E00
00D300
011180
011080
001080
002080
C02100
804100
804E00
80B000
808000
810000
7E0000
ENDCHAR
STARTCHAR germandbls
ENCODING 223
SWIDTH 304 0
DWIDTH 7 0
BBX 21 23 -8 -6
BITMAP
0000F8
000308
000408
000408
000810
000820
0010C0
001100
001200
002400
002800
002800
002400
004400
004200
005200
009C00
008000
010000
010000
020000
840000
780000
ENDCHAR
STARTCHAR agrave
ENCODING 224
SWIDTH 294 0
DWIDTH 7 0
BBX 6 9 1 0
BITMAP
18
04
00
3C
48
90
90
B8
C8
ENDCHAR
STARTCHAR aacute
ENCODING 225
SWIDTH 294 0
DWIDTH 7 0
BBX 6 10 1 0
BITMAP
04
08
10
00
3C
48
90
90
B8
C8
ENDCHAR
STARTCHAR acircumflex
ENCODING 226
SWIDTH 294 0
DWIDTH 7 0
BBX 6 10 1 0
BITMAP
10
2C
00
00
3C
48
90
90
B8
C8
ENDCHAR
STARTCHAR atilde
ENCODING 227
SWIDTH 294 0
DWIDTH 7 0
BBX 6 9 1 0
BITMAP
14
68
00
3C
48
90
90
B8
C8
ENDCHAR
STARTCHAR adieresis
ENCODING 228
SWIDTH 284 0
DWIDTH 7 0
BBX 6 9 1 0
BITMAP
14
00
00
3C
48
90
90
B8
C8
ENDCHAR
STARTCHAR aring
ENCODING 229
SWIDTH 294 0
DWIDTH 7 0
BBX 6 10 1 0
BITMAP
1C
14
18
00
3C
48
90
90
B8
C8
ENDCHAR
STARTCHAR ae
ENCODING 230
SWIDTH 363 0
DWIDTH 9 0
BBX 7 7 1 0
BITMAP
08
3E
4A
8C
90
B2
DC
ENDCHAR
STARTCHAR ccedilla
ENCODING 231
SWIDTH 203 0
DWIDTH 5 0
BBX 4 9 1 -3
BITMAP
70
80
80
80
90
E0
40
40
80
ENDCHAR
STARTCHAR egrave
ENCODING 232
SWIDTH 206 0
DWIDTH 5 0
BBX 5 9 1 0
BITMAP
20
18
00
70
90
E0
80
90
E0
ENDCHAR
STARTCHAR eacute
ENCODING 233
SWIDTH 206 0
DWIDTH 5 0
BBX 5 10 1 0
BITMAP
08
10
20
00
70
90
E0
80
90
E0
ENDCHAR
STARTCHAR ecircumflex
ENCODING 234
SWIDTH 206 0
DWIDTH 5 0
BBX 5 10 1 0
BITMAP
20
50
08
00
70
90
E0
80
90
E0
ENDCHAR
STARTCHAR edieresis
ENCODING 235
SWIDTH 206 0
DWIDTH 5 0
BBX 5 9 1 0
BITMAP
28
00
00
70
90
E0
80
90
E0
ENDCHAR
STARTCHAR igrave
ENCODING 236
SWIDTH 149 0
DWIDTH 4 0
BBX 4 9 1 0
BITMAP
40
30
00
60
C0
40
80
A0
C0
ENDCHAR
STARTCHAR iacute
ENCODING 237
SWIDTH 149 0
DWIDTH 4 0
BBX 4 10 1 0
BITMAP
10
10
60
00
60
C0
40
80
A0
C0
ENDCHAR
STARTCHAR icircumflex
ENCODING 238
SWIDTH 149 0
DWIDTH 4 0
BBX 4 10 1 0
BITMAP
20
D0
00
00
60
C0
40
80
A0
C0
ENDCHAR
STARTCHAR idieresis
ENCODING 239
SWIDTH 149 0
DWIDTH 4 0
BBX 5 9 1 0
BITMAP
78
00
00
60
C0
40
80
A0
C0
ENDCHAR
STARTCHAR eth
ENCODING 240
SWIDTH 234 0
DWIDTH 6 0
BBX 4 16 1 0
BITMAP
80
80
80
40
30
20
E0
10
10
10
70
90
90
90
A0
C0
ENDCHAR
STARTCHAR ntilde
ENCODING 241
SWIDTH 291 0
DWIDTH 7 0
BBX 7 9 0 0
BITMAP
0A
34
00
E6
3C
64
48
CA
8C
ENDCHAR
STARTCHAR ograve
ENCODING 242
SWIDTH 225 0
DWIDTH 5 0
BBX 5 9 1 0
BITMAP
30
08
00
30
50
90
90
A0
C0
ENDCHAR
STARTCHAR oacute
ENCODING 243
SWIDTH 225 0
DWIDTH 5 0
BBX 5 10 1 0
BITMAP
08
10
20
00
30
50
90
90
A0
C0
ENDCHAR
STARTCHAR ocircumflex
ENCODING 244
SWIDTH 225 0
DWIDTH 5 0
BBX 5 10 1 0
BITMAP
10
68
00
00
30
50
90
90
A0
C0
ENDCHAR
STARTCHAR otilde
ENCODING 245
SWIDTH 225 0
DWIDTH 5 0
BBX 6 9 1 0
BITMAP
2C
58
00
30
50
90
90
A0
C0
ENDCHAR
STARTCHAR odieresis
ENCODING 246
SWIDTH 225 0
DWIDTH 5 0
BBX 5 9 1 0
BITMAP
28
00
00
30
50
90
90
A0
C0
ENDCHAR
STARTCHAR divide
ENCODING 247
SWIDTH 301 0
DWIDTH 7 0
BBX 6 5 1 1
BITMAP
10
00
FC
00
20
ENDCHAR
STARTCHAR oslash
ENCODING 248
SWIDTH 225 0
DWIDTH 5 0
BBX 6 8 0 -1
BITMAP
04
18
28
78
68
50
60
80
ENDCHAR
STARTCHAR ugrave
ENCODING 249
SWIDTH 299 0
DWIDTH 7 0
BBX 7 9 1 0
BITMAP
18
04
00
64
C4
88
98
A8
CE
ENDCHAR
STARTCHAR uacute
ENCODING 250
SWIDTH 299 0
DWIDTH 7 0
BBX 7 10 1 0
BITMAP
04
0C
10
00
64
C4
88
98
A8
CE
ENDCHAR
STARTCHAR ucircumflex
ENCODING 251
SWIDTH 299 0
DWIDTH 7 0
BBX 7 10 1 0
BITMAP
08
34
00
00
64
C4
88
98
A8
CE
ENDCHAR
STARTCHAR udieresis
ENCODING 252
SWIDTH 299 0
DWIDTH 7 0
BBX 7 9 1 0
BITMAP
14
00
00
64
C4
88
98
A8
CE
ENDCHAR
STARTCHAR yacute
ENCODING 253
SWIDTH 280 0
DWIDTH 7 0
BBX 11 16 -4 -6
BITMAP
0020
0020
00C0
0000
0320
0620
0440
04C0
0580
0680
0080
0100
8100
8200
8400
7800
ENDCHAR
STARTCHAR thorn
ENCODING 254
SWIDTH 261 0
DWIDTH 6 0
BBX 6 18 0 -6
BITMAP
08
18
08
10
10
20
3C
24
24
48
48
70
80
80
80
80
80
80
ENDCHAR
STARTCHAR ydieresis
ENCODING 255
SWIDTH 280 0
DWIDTH 7 0
BBX 11 15 -4 -6
BITMAP
00A0
0000
0000
0320
0620
0440
04C0
0580
0680
0080
0100
8100
8200
8400
7800
ENDCHAR
STARTCHAR dotlessi
ENCODING 305
SWIDTH 149 0
DWIDTH 4 0
BBX 3 6 1 0
BITMAP
60
C0
40
80
A0
C0
ENDCHAR
STARTCHAR Lslash
ENCODING 321
SWIDTH 657 0
DWIDTH 16 0
BBX 16 15 1 0
BITMAP
0007
0019
0021
0041
0040
0050
0060
0380
0080
0080
0100
0100
FA02
8704
F9F8
ENDCHAR
STARTCHAR lslash
ENCODING 322
SWIDTH 134 0
DWIDTH 3 0
BBX 11 18 1 0
BITMAP
00E0
0120
0200
0400
0800
0800
1000
1C00
6000
2000
2000
4000
4000
4000
8000
8000
8000
E000
ENDCHAR
STARTCHAR OE
ENCODING 338
SWIDTH 827 0
DWIDTH 20 0
BBX 19 15 2 0
BITMAP
03C7C0
0C3820
101040
201000
401800
400E00
803000
804000
808000
808000
808000
C08040
408080
704080
1FBF00
ENDCHAR
STARTCHAR oe
ENCODING 339
SWIDTH 345 0
DWIDTH 8 0
BBX 7 6 1 0
BITMAP
36
DA
9C
90
B2
DC
ENDCHAR
STARTCHAR Scaron
ENCODING 352
SWIDTH 480 0
DWIDTH 12 0
BBX 12 18 1 0
BITMAP
0090
0060
0000
01E0
0210
0210
0200
0300
0100
0180
0080
00C0
0040
C040
8040
8080
C080
3F00
ENDCHAR
STARTCHAR scaron
ENCODING 353
SWIDTH 188 0
DWIDTH 5 0
BBX 6 10 0 0
BITMAP
34
08
00
00
38
28
20
10
90
E0
ENDCHAR
STARTCHAR Ydieresis
ENCODING 376
SWIDTH 662 0
DWIDTH 16 0
BBX 21 21 0 -3
BITMAP
000280
000000
000000
00E008
012010
002010
002020
004060
004040
004080
008180
008100
388700
408A00
80F400
800400
800800
801000
C02000
60C000
3F0000
ENDCHAR
STARTCHAR Zcaron
ENCODING 381
SWIDTH 625 0
DWIDTH 15 0
BBX 16 18 1 0
BITMAP
0024
0018
0000
01FF
0204
0408
0410
0020
0040
0080
0100
0200
0400
0800
1004
2008
7810
87E0
ENDCHAR
STARTCHAR zcaron
ENCODING 382
SWIDTH 248 0
DWIDTH 6 0
BBX 7 10 0 0
BITMAP
16
0C
00
00
3C
50
20
20
48
F0
ENDCHAR
STARTCHAR florin
ENCODING 402
SWIDTH 214 0
DWIDTH 5 0
BBX 8 10 -2 -2
BITMAP
03
05
08
08
1E
10
10
10
20
C0
ENDCHAR
STARTCHAR circumflex
ENCODING 710
SWIDTH 196 0
DWIDTH 5 0
BBX 4 2 0 8
BITMAP
20
D0
ENDCHAR
STARTCHAR caron
ENCODING 711
SWIDTH 196 0
DWIDTH 5 0
BBX 4 2 1 8
BITMAP
B0
40
ENDCHAR
STARTCHAR breve
ENCODING 728
SWIDTH 198 0
DWIDTH 5 0
BBX 4 2 0 8
BITMAP
90
60
ENDCHAR
STARTCHAR dotaccent
ENCODING 729
SWIDTH 89 0
DWIDTH 3 0
BBX 1 1 1 8
BITMAP
80
ENDCHAR
STARTCHAR ring
ENCODING 730
SWIDTH 117 0
DWIDTH 3 0
BBX 3 3 0 7
BITMAP
60
A0
C0
ENDCHAR
STARTCHAR ogonek
ENCODING 731
SWIDTH 124 0
DWIDTH 3 0
BBX 2 3 0 -3
BITMAP
40
80
40
ENDCHAR
STARTCHAR tilde
ENCODING 732
SWIDTH 222 0
DWIDTH 5 0
BBX 5 2 0 7
BITMAP
68
B0
ENDCHAR
STARTCHAR hungarumlaut
ENCODING 733
SWIDTH 253 0
DWIDTH 6 0
BBX 6 3 0 7
BITMAP
2C
48
90
ENDCHAR
STARTCHAR mu.dup2
ENCODING 956
SWIDTH 324 0
DWIDTH 8 0
BBX 8 10 -1 -4
BITMAP
19
11
22
26
6A
53
40
40
80
80
ENDCHAR
STARTCHAR endash
ENCODING 8211
SWIDTH 500 0
DWIDTH 12 0
BBX 12 1 0 3
BITMAP
FFF0
ENDCHAR
STARTCHAR emdash
ENCODING 8212
SWIDTH 1000 0
DWIDTH 24 0
BBX 24 1 0 3
BITMAP
FFFFFF
ENDCHAR
STARTCHAR quoteleft
ENCODING 8216
SWIDTH 87 0
DWIDTH 2 0
BBX 2 4 1 6
BITMAP
40
80
80
80
ENDCHAR
STARTCHAR quoteright
ENCODING 8217
SWIDTH 87 0
DWIDTH 2 0
BBX 2 4 1 6
BITMAP
40
40
80
80
ENDCHAR
STARTCHAR quotesinglbase
ENCODING 8218
SWIDTH 112 0
DWIDTH 3 0
BBX 2 4 0 -2
BITMAP
40
40
40
80
ENDCHAR
STARTCHAR quotedblleft
ENCODING 8220
SWIDTH 167 0
DWIDTH 3 0
BBX 4 4 1 6
BITMAP
50
A0
A0
A0
ENDCHAR
STARTCHAR quotedblright
ENCODING 8221
SWIDTH 167 0
DWIDTH 4 0
BBX 4 4 1 6
BITMAP
50
50
A0
A0
ENDCHAR
STARTCHAR quotedblbase
ENCODING 8222
SWIDTH 192 0
DWIDTH 5 0
BBX 4 4 0 -2
BITMAP
50
50
50
A0
ENDCHAR
STARTCHAR dagger
ENCODING 8224
SWIDTH 185 0
DWIDTH 4 0
BBX 5 15 1 -2
BITMAP
10
10
10
20
20
F8
20
40
40
40
80
80
80
80
80
ENDCHAR
STARTCHAR daggerdbl
ENCODING 8225
SWIDTH 185 0
DWIDTH 4 0
BBX 6 14 0 -2
BITMAP
08
08
10
10
7C
20
20
20
40
F8
40
40
40
80
ENDCHAR
STARTCHAR bullet
ENCODING 8226
SWIDTH 207 0
DWIDTH 5 0
BBX 3 3 1 2
BITMAP
60
E0
C0
ENDCHAR
STARTCHAR ellipsis
ENCODING 8230
SWIDTH 376 0
DWIDTH 9 0
BBX 7 1 1 0
BITMAP
92
ENDCHAR
STARTCHAR perthousand
ENCODING 8240
SWIDTH 571 0
DWIDTH 14 0
BBX 13 11 0 -2
BITMAP
0180
3100
5200
9400
A510
4EA8
14C8
2548
2630
4000
8000
ENDCHAR
STARTCHAR guilsinglleft
ENCODING 8249
SWIDTH 189 0
DWIDTH 5 0
BBX 4 6 0 0
BITMAP
10
20
C0
80
40
20
ENDCHAR
STARTCHAR guilsinglright
ENCODING 8250
SWIDTH 176 0
DWIDTH 4 0
BBX 4 6 -1 0
BITMAP
40
20
10
20
40
80
ENDCHAR
STARTCHAR fraction
ENCODING 8260
SWIDTH 220 0
DWIDTH 5 0
BBX 9 9 -1 -1
BITMAP
0180
0200
0400
0400
0800
1000
2000
4000
8000
ENDCHAR
STARTCHAR Euro
ENCODING 8364
SWIDTH 360 0
DWIDTH 9 0
BBX 8 8 0 0
BITMAP
0E
31
41
78
C0
F8
44
38
ENDCHAR
STARTCHAR trademark
ENCODING 8482
SWIDTH 389 0
DWIDTH 9 0
BBX 7 4 2 4
BITMAP
EA
9C
AC
42
ENDCHAR
STARTCHAR minus
ENCODING 8722
SWIDTH 301 0
DWIDTH 7 0
BBX 6 1 1 3
BITMAP
FC
ENDCHAR
STARTCHAR fi
ENCODING 64257
SWIDTH 297 0
DWIDTH 7 0
BBX 20 24 -7 -6
BITMAP
000070
000190
000200
000400
000400
000800
000800
001000
001100
002200
002400
004000
00FC00
004800
004800
009000
009400
011800
010000
020000
020000
040000
880000
F00000
ENDCHAR
STARTCHAR fl
ENCODING 64258
SWIDTH 290 0
DWIDTH 7 0
BBX 23 24 -8 -6
BITMAP
00000E
0000F2
000120
000240
000480
000480
000900
000900
001A00
001200
003400
003400
007C00
00A800
004800
004800
008A00
008C00
008000
010000
020000
020000
840000
780000
ENDCHAR
STARTCHAR .notdef
ENCODING -1
SWIDTH 150 0
DWIDTH 4 0
BBX 1 1 0 0
BITMAP
00
ENDCHAR
STARTCHAR .null
ENCODING -1
SWIDTH 0 0
DWIDTH 0 0
BBX 1 1 0 0
BITMAP
00
ENDCHAR
STARTCHAR nonmarkingreturn
ENCODING -1
SWIDTH 150 0
DWIDTH 4 0
BBX 1 1 0 0
BITMAP
00
ENDCHAR
ENDFONT
